<mxfile host="Electron" modified="2024-04-03T10:16:20.162Z" agent="Mozilla/5.0 (Windows NT 10.0; Win64; x64) AppleWebKit/537.36 (KHTML, like Gecko) draw.io/24.1.0 Chrome/120.0.6099.109 Electron/28.1.0 Safari/537.36" etag="JUa12oN1QurYjnU1wUQW" version="24.1.0" type="device">
  <diagram name="第 1 页" id="HmDgLTT28vL-RDw4OSmo">
    <mxGraphModel dx="1150" dy="803" grid="0" gridSize="10" guides="1" tooltips="1" connect="1" arrows="1" fold="1" page="1" pageScale="1" pageWidth="827" pageHeight="1169" math="0" shadow="0">
      <root>
        <mxCell id="0" />
        <mxCell id="1" parent="0" />
        <mxCell id="K1r-CnMMg6AbpLQNNhjH-3" value="" style="edgeStyle=orthogonalEdgeStyle;rounded=0;orthogonalLoop=1;jettySize=auto;html=1;" edge="1" parent="1" source="K1r-CnMMg6AbpLQNNhjH-1" target="K1r-CnMMg6AbpLQNNhjH-2">
          <mxGeometry relative="1" as="geometry" />
        </mxCell>
        <mxCell id="K1r-CnMMg6AbpLQNNhjH-1" value="&lt;font style=&quot;font-size: 16px;&quot;&gt;开始&lt;/font&gt;" style="rounded=0;whiteSpace=wrap;html=1;" vertex="1" parent="1">
          <mxGeometry x="190" y="110" width="100" height="40" as="geometry" />
        </mxCell>
        <mxCell id="K1r-CnMMg6AbpLQNNhjH-5" value="" style="edgeStyle=orthogonalEdgeStyle;rounded=0;orthogonalLoop=1;jettySize=auto;html=1;" edge="1" parent="1" source="K1r-CnMMg6AbpLQNNhjH-2" target="K1r-CnMMg6AbpLQNNhjH-4">
          <mxGeometry relative="1" as="geometry" />
        </mxCell>
        <mxCell id="K1r-CnMMg6AbpLQNNhjH-2" value="&lt;font style=&quot;font-size: 16px;&quot;&gt;输入人体姿态骨骼点坐标&lt;/font&gt;" style="rounded=0;whiteSpace=wrap;html=1;" vertex="1" parent="1">
          <mxGeometry x="130" y="200" width="220" height="40" as="geometry" />
        </mxCell>
        <mxCell id="K1r-CnMMg6AbpLQNNhjH-4" value="&lt;font style=&quot;font-size: 16px;&quot;&gt;评估&lt;/font&gt;" style="rounded=0;whiteSpace=wrap;html=1;" vertex="1" parent="1">
          <mxGeometry x="185" y="280" width="110" height="40" as="geometry" />
        </mxCell>
        <mxCell id="K1r-CnMMg6AbpLQNNhjH-11" value="" style="edgeStyle=orthogonalEdgeStyle;rounded=0;orthogonalLoop=1;jettySize=auto;html=1;" edge="1" parent="1" source="K1r-CnMMg6AbpLQNNhjH-6" target="K1r-CnMMg6AbpLQNNhjH-10">
          <mxGeometry relative="1" as="geometry" />
        </mxCell>
        <mxCell id="K1r-CnMMg6AbpLQNNhjH-28" value="&lt;font style=&quot;font-size: 15px;&quot;&gt;是&lt;/font&gt;" style="edgeLabel;html=1;align=center;verticalAlign=middle;resizable=0;points=[];" vertex="1" connectable="0" parent="K1r-CnMMg6AbpLQNNhjH-11">
          <mxGeometry x="0.2267" y="1" relative="1" as="geometry">
            <mxPoint x="24" as="offset" />
          </mxGeometry>
        </mxCell>
        <mxCell id="K1r-CnMMg6AbpLQNNhjH-33" style="edgeStyle=orthogonalEdgeStyle;rounded=0;orthogonalLoop=1;jettySize=auto;html=1;exitX=1;exitY=0.5;exitDx=0;exitDy=0;exitPerimeter=0;entryX=1;entryY=0.5;entryDx=0;entryDy=0;" edge="1" parent="1" source="K1r-CnMMg6AbpLQNNhjH-6" target="K1r-CnMMg6AbpLQNNhjH-24">
          <mxGeometry relative="1" as="geometry">
            <Array as="points">
              <mxPoint x="690" y="300" />
              <mxPoint x="690" y="765" />
            </Array>
          </mxGeometry>
        </mxCell>
        <mxCell id="K1r-CnMMg6AbpLQNNhjH-34" value="&lt;font style=&quot;font-size: 16px;&quot;&gt;否&lt;/font&gt;" style="edgeLabel;html=1;align=center;verticalAlign=middle;resizable=0;points=[];" vertex="1" connectable="0" parent="K1r-CnMMg6AbpLQNNhjH-33">
          <mxGeometry x="-0.9305" y="2" relative="1" as="geometry">
            <mxPoint x="-16" y="-18" as="offset" />
          </mxGeometry>
        </mxCell>
        <mxCell id="K1r-CnMMg6AbpLQNNhjH-6" value="&lt;font style=&quot;font-size: 16px;&quot;&gt;判断合法性&lt;/font&gt;" style="strokeWidth=1;html=1;shape=mxgraph.flowchart.decision;whiteSpace=wrap;" vertex="1" parent="1">
          <mxGeometry x="350" y="260" width="150" height="80" as="geometry" />
        </mxCell>
        <mxCell id="K1r-CnMMg6AbpLQNNhjH-7" style="edgeStyle=orthogonalEdgeStyle;rounded=0;orthogonalLoop=1;jettySize=auto;html=1;exitX=1;exitY=0.5;exitDx=0;exitDy=0;entryX=0;entryY=0.5;entryDx=0;entryDy=0;entryPerimeter=0;" edge="1" parent="1" source="K1r-CnMMg6AbpLQNNhjH-4" target="K1r-CnMMg6AbpLQNNhjH-6">
          <mxGeometry relative="1" as="geometry" />
        </mxCell>
        <mxCell id="K1r-CnMMg6AbpLQNNhjH-13" value="" style="edgeStyle=orthogonalEdgeStyle;rounded=0;orthogonalLoop=1;jettySize=auto;html=1;" edge="1" parent="1" source="K1r-CnMMg6AbpLQNNhjH-10" target="K1r-CnMMg6AbpLQNNhjH-12">
          <mxGeometry relative="1" as="geometry" />
        </mxCell>
        <mxCell id="K1r-CnMMg6AbpLQNNhjH-10" value="&lt;font style=&quot;font-size: 16px;&quot;&gt;评估流程&lt;/font&gt;" style="whiteSpace=wrap;html=1;strokeWidth=1;" vertex="1" parent="1">
          <mxGeometry x="365" y="370" width="120" height="60" as="geometry" />
        </mxCell>
        <mxCell id="K1r-CnMMg6AbpLQNNhjH-15" value="" style="edgeStyle=orthogonalEdgeStyle;rounded=0;orthogonalLoop=1;jettySize=auto;html=1;" edge="1" parent="1" source="K1r-CnMMg6AbpLQNNhjH-12" target="K1r-CnMMg6AbpLQNNhjH-14">
          <mxGeometry relative="1" as="geometry" />
        </mxCell>
        <mxCell id="K1r-CnMMg6AbpLQNNhjH-12" value="&lt;font style=&quot;font-size: 16px;&quot;&gt;坐标系转换&lt;/font&gt;" style="whiteSpace=wrap;html=1;strokeWidth=1;" vertex="1" parent="1">
          <mxGeometry x="365" y="470" width="120" height="60" as="geometry" />
        </mxCell>
        <mxCell id="K1r-CnMMg6AbpLQNNhjH-17" value="" style="edgeStyle=orthogonalEdgeStyle;rounded=0;orthogonalLoop=1;jettySize=auto;html=1;" edge="1" parent="1" source="K1r-CnMMg6AbpLQNNhjH-14" target="K1r-CnMMg6AbpLQNNhjH-16">
          <mxGeometry relative="1" as="geometry" />
        </mxCell>
        <mxCell id="K1r-CnMMg6AbpLQNNhjH-14" value="&lt;font style=&quot;font-size: 16px;&quot;&gt;与标准姿态匹配&lt;/font&gt;" style="whiteSpace=wrap;html=1;strokeWidth=1;" vertex="1" parent="1">
          <mxGeometry x="532" y="470" width="120" height="60" as="geometry" />
        </mxCell>
        <mxCell id="K1r-CnMMg6AbpLQNNhjH-19" value="" style="edgeStyle=orthogonalEdgeStyle;rounded=0;orthogonalLoop=1;jettySize=auto;html=1;" edge="1" parent="1" source="K1r-CnMMg6AbpLQNNhjH-16" target="K1r-CnMMg6AbpLQNNhjH-18">
          <mxGeometry relative="1" as="geometry" />
        </mxCell>
        <mxCell id="K1r-CnMMg6AbpLQNNhjH-16" value="&lt;font style=&quot;font-size: 16px;&quot;&gt;局部评估&lt;/font&gt;" style="whiteSpace=wrap;html=1;strokeWidth=1;" vertex="1" parent="1">
          <mxGeometry x="532" y="560" width="120" height="60" as="geometry" />
        </mxCell>
        <mxCell id="K1r-CnMMg6AbpLQNNhjH-21" style="edgeStyle=orthogonalEdgeStyle;rounded=0;orthogonalLoop=1;jettySize=auto;html=1;exitX=0.5;exitY=1;exitDx=0;exitDy=0;entryX=0.5;entryY=0;entryDx=0;entryDy=0;" edge="1" parent="1" source="K1r-CnMMg6AbpLQNNhjH-18" target="K1r-CnMMg6AbpLQNNhjH-20">
          <mxGeometry relative="1" as="geometry" />
        </mxCell>
        <mxCell id="K1r-CnMMg6AbpLQNNhjH-18" value="&lt;font style=&quot;font-size: 16px;&quot;&gt;计算累计误差&lt;/font&gt;" style="whiteSpace=wrap;html=1;strokeWidth=1;" vertex="1" parent="1">
          <mxGeometry x="365" y="565" width="120" height="50" as="geometry" />
        </mxCell>
        <mxCell id="K1r-CnMMg6AbpLQNNhjH-23" value="" style="edgeStyle=orthogonalEdgeStyle;rounded=0;orthogonalLoop=1;jettySize=auto;html=1;" edge="1" parent="1" source="K1r-CnMMg6AbpLQNNhjH-20" target="K1r-CnMMg6AbpLQNNhjH-22">
          <mxGeometry relative="1" as="geometry" />
        </mxCell>
        <mxCell id="K1r-CnMMg6AbpLQNNhjH-20" value="&lt;font style=&quot;font-size: 16px;&quot;&gt;匹配结果处理&lt;/font&gt;" style="whiteSpace=wrap;html=1;strokeWidth=1;" vertex="1" parent="1">
          <mxGeometry x="365" y="650" width="120" height="50" as="geometry" />
        </mxCell>
        <mxCell id="K1r-CnMMg6AbpLQNNhjH-25" value="" style="edgeStyle=orthogonalEdgeStyle;rounded=0;orthogonalLoop=1;jettySize=auto;html=1;" edge="1" parent="1" source="K1r-CnMMg6AbpLQNNhjH-22" target="K1r-CnMMg6AbpLQNNhjH-24">
          <mxGeometry relative="1" as="geometry" />
        </mxCell>
        <mxCell id="K1r-CnMMg6AbpLQNNhjH-22" value="&lt;font style=&quot;font-size: 16px;&quot;&gt;输出匹配结果&lt;/font&gt;" style="whiteSpace=wrap;html=1;strokeWidth=1;" vertex="1" parent="1">
          <mxGeometry x="180" y="650" width="120" height="50" as="geometry" />
        </mxCell>
        <mxCell id="K1r-CnMMg6AbpLQNNhjH-24" value="&lt;font style=&quot;font-size: 16px;&quot;&gt;结束&lt;/font&gt;" style="whiteSpace=wrap;html=1;strokeWidth=1;" vertex="1" parent="1">
          <mxGeometry x="180" y="740" width="120" height="50" as="geometry" />
        </mxCell>
      </root>
    </mxGraphModel>
  </diagram>
</mxfile>
